<svg width="1200" height="630" xmlns="http://www.w3.org/2000/svg">
  <defs>
    <linearGradient id="bgGradient" x1="0%" y1="0%" x2="100%" y2="100%">
      <stop offset="0%" style="stop-color:#0f172a;stop-opacity:1" />
      <stop offset="30%" style="stop-color:#1e293b;stop-opacity:1" />
      <stop offset="70%" style="stop-color:#334155;stop-opacity:1" />
      <stop offset="100%" style="stop-color:#475569;stop-opacity:1" />
    </linearGradient>
    <linearGradient id="accentGradient" x1="0%" y1="0%" x2="100%" y2="0%">
      <stop offset="0%" style="stop-color:#06b6d4;stop-opacity:1" />
      <stop offset="50%" style="stop-color:#3b82f6;stop-opacity:1" />
      <stop offset="100%" style="stop-color:#8b5cf6;stop-opacity:1" />
    </linearGradient>
    <filter id="glow">
      <feGaussianBlur stdDeviation="4" result="coloredBlur"/>
      <feMerge> 
        <feMergeNode in="coloredBlur"/>
        <feMergeNode in="SourceGraphic"/>
      </feMerge>
    </filter>
    <pattern id="grid" patternUnits="userSpaceOnUse" width="40" height="40">
      <path d="M 40 0 L 0 0 0 40" fill="none" stroke="rgba(59,130,246,0.1)" stroke-width="1"/>
    </pattern>
  </defs>
  
  <!-- Background -->
  <rect width="1200" height="630" fill="url(#bgGradient)"/>
  <rect width="1200" height="630" fill="url(#grid)" opacity="0.3"/>
  
  <!-- Top accent bar -->
  <rect width="1200" height="8" fill="url(#accentGradient)"/>
  
  <!-- Main content area -->
  <rect x="60" y="80" width="1080" height="470" fill="rgba(255,255,255,0.03)" rx="20" ry="20" stroke="rgba(59,130,246,0.2)" stroke-width="2"/>
  
  <!-- Left section - Hornero bird and title -->
  <g transform="translate(120, 150)">
    <!-- Hornero bird icon -->
    <circle cx="80" cy="80" r="70" fill="rgba(251,191,36,0.2)"/>
    <circle cx="80" cy="80" r="60" fill="#f59e0b" filter="url(#glow)"/>
    <path d="M50 70 Q80 50 110 70 Q100 90 80 100 Q60 90 50 70 Z" fill="#92400e"/>
    <circle cx="70" cy="70" r="6" fill="#ffffff"/>
    <path d="M90 80 Q100 76 110 80" stroke="#92400e" stroke-width="4" fill="none"/>
    <!-- Nest detail -->
    <path d="M40 120 Q80 110 120 120 Q110 140 80 135 Q50 140 40 120 Z" fill="#a16207" opacity="0.6"/>
  </g>
  
  <!-- Arrow -->
  <g transform="translate(320, 220)">
    <path d="M0 40 L40 20 L40 30 L80 30 L80 50 L40 50 L40 60 Z" fill="#10b981" filter="url(#glow)"/>
  </g>
  
  <!-- Template representation -->
  <g transform="translate(450, 150)">
    <rect x="0" y="0" width="100" height="120" fill="rgba(255,255,255,0.1)" rx="10" ry="10" stroke="rgba(6,182,212,0.5)" stroke-width="2"/>
    <rect x="10" y="20" width="80" height="4" fill="#06b6d4"/>
    <rect x="10" y="32" width="60" height="4" fill="#06b6d4"/>
    <rect x="10" y="44" width="70" height="4" fill="#06b6d4"/>
    <rect x="10" y="56" width="50" height="4" fill="#06b6d4"/>
    <rect x="10" y="68" width="80" height="4" fill="#06b6d4"/>
    <rect x="10" y="80" width="45" height="4" fill="#06b6d4"/>
    <text x="50" y="105" text-anchor="middle" fill="#06b6d4" font-family="JetBrains Mono, monospace" font-size="14" font-weight="bold">TEMPLATE</text>
  </g>
  
  <!-- Main title -->
  <g transform="translate(120, 320)">
    <text x="0" y="0" fill="#ffffff" font-family="Inter, Arial, sans-serif" font-size="56" font-weight="900">
      HorneroConfig Template
    </text>
    <text x="0" y="50" fill="#94a3b8" font-family="Inter, Arial, sans-serif" font-size="24" font-weight="400">
      Based on the original dotfiles framework
    </text>
    <text x="0" y="90" fill="#10b981" font-family="Inter, Arial, sans-serif" font-size="20" font-weight="600">
      📋 Follow TEMPLATE_SETUP.md for step-by-step personalization
    </text>
  </g>
  
  <!-- Right section - Call to action -->
  <g transform="translate(780, 180)">
    <rect x="0" y="0" width="300" height="80" fill="url(#accentGradient)" rx="40" ry="40" filter="url(#glow)"/>
    <text x="150" y="35" text-anchor="middle" fill="#ffffff" font-family="Inter, Arial, sans-serif" font-size="24" font-weight="700">
      🚀 Fork & Customize
    </text>
    <text x="150" y="55" text-anchor="middle" fill="#ffffff" font-family="Inter, Arial, sans-serif" font-size="16" font-weight="400">
      Make it yours in minutes
    </text>
  </g>
  
  <!-- Features list -->
  <g transform="translate(780, 290)">
    <text x="0" y="0" fill="#e2e8f0" font-family="Inter, Arial, sans-serif" font-size="16" font-weight="600">✅ No personal credentials</text>
    <text x="0" y="25" fill="#e2e8f0" font-family="Inter, Arial, sans-serif" font-size="16" font-weight="600">✅ Template-ready structure</text>
    <text x="0" y="50" fill="#e2e8f0" font-family="Inter, Arial, sans-serif" font-size="16" font-weight="600">✅ Easy personalization</text>
    <text x="0" y="75" fill="#e2e8f0" font-family="Inter, Arial, sans-serif" font-size="16" font-weight="600">✅ Complete documentation</text>
  </g>
  
  <!-- Decorative elements -->
  <circle cx="1050" cy="120" r="6" fill="#f59e0b" opacity="0.6"/>
  <circle cx="1070" cy="100" r="4" fill="#06b6d4" opacity="0.8"/>
  <circle cx="1080" cy="140" r="8" fill="#8b5cf6" opacity="0.5"/>
  
  <!-- Bottom info -->
  <g transform="translate(120, 580)">
    <text x="0" y="0" fill="#64748b" font-family="JetBrains Mono, monospace" font-size="14">
      github.com/ulises-jeremias/dotfiles-template
    </text>
  </g>
  
  <!-- GitHub logo -->
  <g transform="translate(1100, 570)">
    <path d="M12 0c-6.626 0-12 5.373-12 12 0 5.302 3.438 9.8 8.207 11.387.599.111.793-.261.793-.577v-2.234c-3.338.726-4.033-1.416-4.033-1.416-.546-1.387-1.333-1.756-1.333-1.756-1.089-.745.083-.729.083-.729 1.205.084 1.839 1.237 1.839 1.237 1.07 1.834 2.807 1.304 3.492.997.107-.775.418-1.305.762-1.604-2.665-.305-5.467-1.334-5.467-5.931 0-1.311.469-2.381 1.236-3.221-.124-.303-.535-1.524.117-3.176 0 0 1.008-.322 3.301 1.23.957-.266 1.983-.399 3.003-.404 1.02.005 2.047.138 3.006.404 2.291-1.552 3.297-1.23 3.297-1.23.653 1.653.242 2.874.118 3.176.77.84 1.235 1.911 1.235 3.221 0 4.609-2.807 5.624-5.479 5.921.43.372.823 1.102.823 2.222v3.293c0 .319.192.694.801.576 4.765-1.589 8.199-6.086 8.199-11.386 0-6.627-5.373-12-12-12z" 
          fill="#64748b" transform="scale(1.5)"/>
  </g>
</svg>
